<svg id="Layer_1" data-name="Layer 1" xmlns="http://www.w3.org/2000/svg" viewBox="0 0 102 102"><defs><style>.cls-1{fill:#0563bb;}.cls-2,.cls-3{fill:#fff;}.cls-3{fill-rule:evenodd;}</style></defs><title>Workshop-Data-Visualization-Tableau-Design</title><circle class="cls-1" cx="51" cy="51" r="50"/><polygon class="cls-2" points="60.95 49.27 52.66 49.27 52.66 40.26 49.4 40.26 49.4 49.27 41.11 49.27 41.11 52.47 49.4 52.47 49.4 61.48 52.66 61.48 52.66 52.47 60.95 52.47 60.95 49.27"/><polygon class="cls-2" points="44.28 63.98 36.86 63.98 36.86 55.91 34.05 55.91 34.05 63.98 26.62 63.98 26.62 66.44 34.05 66.44 34.05 74.5 36.86 74.5 36.86 66.44 44.28 66.44 44.28 63.98"/><polygon class="cls-2" points="75.44 35.13 68.01 35.13 68.01 27.02 65.2 27.02 65.2 35.13 57.77 35.13 57.77 37.59 65.2 37.59 65.2 45.61 68.01 45.61 68.01 37.59 75.44 37.59 75.44 35.13"/><polygon class="cls-2" points="57.31 72.93 52.28 72.93 52.28 67.3 49.88 67.3 49.88 72.93 44.84 72.93 44.84 75.1 49.88 75.1 49.88 80.73 52.28 80.73 52.28 75.1 57.31 75.1 57.31 72.93"/><polygon class="cls-2" points="44.28 35.13 36.77 35.13 36.77 27.02 34.14 27.02 34.14 35.13 26.62 35.13 26.62 37.51 34.14 37.51 34.14 45.61 36.77 45.61 36.77 37.51 44.28 37.51 44.28 35.13"/><polygon class="cls-2" points="81.14 49.79 76.1 49.79 76.1 44.16 73.7 44.16 73.7 49.79 68.66 49.79 68.66 51.96 73.7 51.96 73.7 57.58 76.1 57.58 76.1 51.96 81.14 51.96 81.14 49.79"/><polygon class="cls-3" points="75.44 63.98 68.01 63.98 68.01 55.91 65.2 55.91 65.2 63.98 57.77 63.98 57.77 66.44 65.2 66.44 65.2 74.5 68.01 74.5 68.01 66.44 75.44 66.44 75.44 63.98"/><polygon class="cls-2" points="50.18 21.27 50.18 26.79 45.2 26.79 45.2 28.46 50.18 28.46 50.18 33.98 51.97 33.98 51.97 28.46 56.96 28.46 56.96 26.79 51.97 26.79 51.97 21.27 50.18 21.27"/><polygon class="cls-2" points="32.62 50 27.62 50 27.62 44.59 25.86 44.59 25.86 50 20.86 50 20.86 51.74 25.86 51.71 25.86 57.15 27.62 57.15 27.62 51.7 32.62 51.67 32.62 50"/></svg>